<svg version="1.1" id="Layer_1" xmlns="http://www.w3.org/2000/svg" xmlns:xlink="http://www.w3.org/1999/xlink" x="0px" y="0px"
	 width="100%" viewBox="0 0 500 500" enable-background="new 0 0 500 500" xml:space="preserve">
<path fill="#010101" opacity="1.000000" stroke="none" 
	d="
M269.000000,501.000000 
	C179.333359,501.000000 90.166710,501.000000 1.000048,501.000000 
	C1.000032,334.333405 1.000032,167.666794 1.000016,1.000137 
	C167.666565,1.000092 334.333130,1.000092 500.999756,1.000046 
	C500.999847,167.666519 500.999847,334.333038 500.999939,500.999786 
	C423.833344,501.000000 346.666656,501.000000 269.000000,501.000000 
M416.585205,393.019196 
	C438.675049,403.899628 462.292725,408.540924 487.001160,410.806366 
	C487.109344,408.406433 487.260010,406.608673 487.261108,404.810822 
	C487.279175,374.983948 487.278595,345.157104 487.281982,315.330231 
	C487.283173,304.960907 487.281555,304.965942 477.454102,302.328918 
	C475.203125,301.724915 472.938965,301.152832 470.724976,300.430756 
	C453.562744,294.833374 437.935822,286.838684 428.525208,270.527893 
	C418.722687,253.537933 417.010193,234.680573 417.138062,215.535568 
	C417.160004,212.249893 419.601288,212.530182 421.761902,212.506943 
	C431.259216,212.404846 440.759094,212.183105 450.252808,212.333832 
	C452.962036,212.376831 455.793335,213.191391 458.322662,214.243546 
	C462.819031,216.113968 467.127502,218.435989 471.740601,220.679001 
	C472.019562,219.374100 472.209534,218.899323 472.209930,218.424377 
	C472.231689,193.096695 472.296875,167.768539 472.108765,142.442291 
	C472.096466,140.785583 470.501892,138.595261 469.011505,137.587173 
	C461.674133,132.624023 453.063446,133.493683 444.821014,133.022598 
	C438.724243,132.674133 432.591583,132.954102 425.550354,132.954102 
	C432.531433,99.953506 443.400391,69.524567 459.918213,39.860474 
	C456.471313,39.860474 454.526031,39.860649 452.580750,39.860447 
	C425.253326,39.857632 397.925140,39.956951 370.599304,39.748432 
	C366.192902,39.714806 364.217987,41.371403 362.444122,45.193558 
	C353.211792,65.086494 347.545105,86.073357 342.799194,107.358665 
	C340.861267,116.050224 339.144409,124.791077 337.456482,132.888168 
	C296.028687,115.871826 258.565216,122.964760 223.371811,148.811691 
	C222.050415,147.273697 220.738312,145.790100 219.473343,144.267319 
	C209.092560,131.771042 194.795517,126.052673 179.575867,123.779243 
	C170.214630,122.380920 160.247787,124.075378 150.677505,125.331055 
	C142.479843,126.406647 134.436142,128.738419 126.374153,130.717484 
	C123.779831,131.354340 121.343903,132.636444 117.719894,134.062302 
	C120.875313,125.970528 123.541214,119.134087 126.305977,112.044121 
	C124.845512,111.774223 124.208588,111.553963 123.571510,111.553497 
	C91.245377,111.529922 58.919121,111.561699 26.593281,111.459450 
	C23.491707,111.449646 22.630674,113.096901 21.992460,115.538437 
	C13.224283,149.081665 10.519342,183.052017 14.379666,217.557312 
	C17.726791,247.475418 25.263283,276.417725 33.978306,305.125153 
	C35.070518,308.722961 36.972477,309.683441 40.434071,309.667480 
	C62.262051,309.566711 84.090729,309.615997 105.919174,309.615723 
	C107.679466,309.615692 109.439758,309.615723 112.559319,309.615723 
	C107.370369,319.189575 102.771614,327.674500 97.995354,336.486908 
	C99.559677,336.823975 100.191833,337.078857 100.824226,337.079437 
	C133.316818,337.109711 165.809616,337.158783 198.301468,337.006012 
	C199.870087,336.998627 202.157990,335.572968 202.887329,334.171143 
	C218.792847,303.600189 231.250076,271.800354 236.221619,237.465408 
	C238.229385,223.599091 249.697754,212.314468 263.516693,211.067795 
	C271.177399,210.376678 273.200470,211.633972 272.565460,219.421722 
	C271.839996,228.318573 270.408722,237.292435 268.057587,245.897705 
	C260.007599,275.361176 245.573349,302.040741 230.931564,328.593323 
	C229.769943,330.699921 228.820175,332.923340 227.268661,336.133942 
	C230.422684,336.133942 232.515991,336.134033 234.609299,336.133911 
	C264.602661,336.131805 294.596710,336.031036 324.588684,336.234680 
	C329.047943,336.264984 331.604340,335.040314 333.414764,330.897247 
	C336.642181,323.511536 340.367950,316.343567 344.313141,308.201599 
	C351.141083,326.841797 359.684448,343.455872 371.869385,358.016388 
	C384.125793,372.662231 398.809296,384.209564 416.585205,393.019196 
z"/>
<path fill="#67765F" opacity="1.000000" stroke="none" 
	d="
M416.252625,392.849304 
	C398.809296,384.209564 384.125793,372.662231 371.869385,358.016388 
	C359.684448,343.455872 351.141083,326.841797 344.313141,308.201599 
	C340.367950,316.343567 336.642181,323.511536 333.414764,330.897247 
	C331.604340,335.040314 329.047943,336.264984 324.588684,336.234680 
	C294.596710,336.031036 264.602661,336.131805 234.609299,336.133911 
	C232.515991,336.134033 230.422684,336.133942 227.268661,336.133942 
	C228.820175,332.923340 229.769943,330.699921 230.931564,328.593323 
	C245.573349,302.040741 260.007599,275.361176 268.057587,245.897705 
	C270.408722,237.292435 271.839996,228.318573 272.565460,219.421722 
	C273.200470,211.633972 271.177399,210.376678 263.516693,211.067795 
	C249.697754,212.314468 238.229385,223.599091 236.221619,237.465408 
	C231.250076,271.800354 218.792847,303.600189 202.887329,334.171143 
	C202.157990,335.572968 199.870087,336.998627 198.301468,337.006012 
	C165.809616,337.158783 133.316818,337.109711 100.824226,337.079437 
	C100.191833,337.078857 99.559677,336.823975 97.995354,336.486908 
	C102.771614,327.674500 107.370369,319.189575 112.559319,309.615723 
	C109.439758,309.615723 107.679466,309.615692 105.919174,309.615723 
	C84.090729,309.615997 62.262051,309.566711 40.434071,309.667480 
	C36.972477,309.683441 35.070518,308.722961 33.978306,305.125153 
	C25.263283,276.417725 17.726791,247.475418 14.379666,217.557312 
	C10.519342,183.052017 13.224283,149.081665 21.992460,115.538437 
	C22.630674,113.096901 23.491707,111.449646 26.593281,111.459450 
	C58.919121,111.561699 91.245377,111.529922 123.571510,111.553497 
	C124.208588,111.553963 124.845512,111.774223 126.305977,112.044121 
	C123.541214,119.134087 120.875313,125.970528 117.719894,134.062302 
	C121.343903,132.636444 123.779831,131.354340 126.374153,130.717484 
	C134.436142,128.738419 142.479843,126.406647 150.677505,125.331055 
	C160.247787,124.075378 170.214630,122.380920 179.575867,123.779243 
	C194.795517,126.052673 209.092560,131.771042 219.473343,144.267319 
	C220.738312,145.790100 222.050415,147.273697 223.371811,148.811691 
	C258.565216,122.964760 296.028687,115.871826 337.456482,132.888168 
	C339.144409,124.791077 340.861267,116.050224 342.799194,107.358665 
	C347.545105,86.073357 353.211792,65.086494 362.444122,45.193558 
	C364.217987,41.371403 366.192902,39.714806 370.599304,39.748432 
	C397.925140,39.956951 425.253326,39.857632 452.580750,39.860447 
	C454.526031,39.860649 456.471313,39.860474 459.918213,39.860474 
	C443.400391,69.524567 432.531433,99.953506 425.550354,132.954102 
	C432.591583,132.954102 438.724243,132.674133 444.821014,133.022598 
	C453.063446,133.493683 461.674133,132.624023 469.011505,137.587173 
	C470.501892,138.595261 472.096466,140.785583 472.108765,142.442291 
	C472.296875,167.768539 472.231689,193.096695 472.209930,218.424377 
	C472.209534,218.899323 472.019562,219.374100 471.740601,220.679001 
	C467.127502,218.435989 462.819031,216.113968 458.322662,214.243546 
	C455.793335,213.191391 452.962036,212.376831 450.252808,212.333832 
	C440.759094,212.183105 431.259216,212.404846 421.761902,212.506943 
	C419.601288,212.530182 417.160004,212.249893 417.138062,215.535568 
	C417.010193,234.680573 418.722687,253.537933 428.525208,270.527893 
	C437.935822,286.838684 453.562744,294.833374 470.724976,300.430756 
	C472.938965,301.152832 475.203125,301.724915 477.454102,302.328918 
	C487.281555,304.965942 487.283173,304.960907 487.281982,315.330231 
	C487.278595,345.157104 487.279175,374.983948 487.261108,404.810822 
	C487.260010,406.608673 487.109344,408.406433 487.001160,410.806366 
	C462.292725,408.540924 438.675049,403.899628 416.252625,392.849304 
M404.500427,53.491173 
	C395.834686,53.491531 387.165436,53.634132 378.504883,53.422394 
	C375.030273,53.337444 372.934845,54.251842 371.855133,57.774776 
	C367.326538,72.550652 361.763733,87.070023 358.210297,102.069633 
	C353.320679,122.709618 349.904968,143.698761 345.844208,164.608154 
	C346.261108,164.638702 346.012268,164.687759 345.957581,164.606384 
	C345.130432,163.375351 344.290070,162.150391 343.527161,160.879379 
	C337.160431,150.272400 328.359955,142.270172 316.108124,140.080292 
	C306.228455,138.314423 295.920807,137.657639 285.900238,138.224930 
	C262.935272,139.525055 242.943848,148.165817 227.102402,165.331345 
	C224.888443,167.730347 222.843018,170.284897 220.744446,172.738358 
	C218.343964,168.149551 216.395050,163.698776 213.820755,159.645172 
	C207.309601,149.392395 198.308670,141.965439 186.264954,139.680237 
	C161.395081,134.961349 137.350739,137.581787 115.582642,151.283524 
	C107.399040,156.434616 100.398941,163.465988 91.981239,170.359192 
	C96.616028,155.047211 101.094437,140.251877 105.661682,125.163063 
	C82.618912,125.163063 59.796467,125.207672 36.974651,125.108002 
	C34.041584,125.095200 33.459217,126.606621 32.907753,128.956772 
	C27.002132,154.124481 24.968126,179.570953 26.959433,205.358688 
	C29.278959,235.396957 35.801971,264.570190 44.884266,293.214722 
	C45.250694,294.370392 47.016777,295.868256 48.143570,295.879150 
	C65.619148,296.048004 83.096848,295.997192 100.659531,295.997192 
	C98.210007,285.445648 96.070206,275.200043 93.424820,265.086731 
	C89.918816,251.683228 90.869209,238.736099 96.241638,226.025513 
	C103.957420,207.770813 119.440804,196.884079 137.786392,196.875931 
	C149.295334,196.870819 156.511185,202.651306 156.819733,214.119583 
	C157.071899,223.492020 156.326263,233.155731 154.225998,242.276520 
	C148.362503,267.739868 137.322845,291.272491 125.326355,314.358154 
	C123.908623,317.086426 122.672356,319.908966 121.287117,322.824280 
	C122.425362,323.148071 122.899071,323.399933 123.373291,323.400879 
	C145.704178,323.445404 168.035599,323.529785 190.364899,323.351776 
	C191.817383,323.340210 193.888367,321.605957 194.603439,320.148865 
	C207.789551,293.279449 217.900742,265.377655 222.720978,235.699051 
	C225.945068,215.848099 239.056656,201.587189 258.651215,197.644806 
	C274.514130,194.453217 286.074402,198.890686 286.059570,219.076096 
	C286.054138,226.491745 285.021973,234.059036 283.330627,241.293564 
	C277.339966,266.917603 266.382935,290.627045 254.309052,313.859070 
	C253.032242,316.315887 251.874756,318.834747 250.507675,321.641479 
	C251.671402,321.890137 252.273407,322.130646 252.875671,322.131348 
	C275.040985,322.156891 297.206818,322.218842 319.370544,322.033966 
	C320.841309,322.021729 322.926636,320.431793 323.648132,319.023438 
	C326.603851,313.253632 329.450562,307.388245 331.770233,301.340485 
	C336.997833,287.711456 341.888397,273.953156 346.900970,260.288605 
	C347.181702,261.618988 347.498108,263.195648 347.848175,264.764832 
	C350.273041,275.634888 352.035339,286.705902 355.250427,297.337402 
	C369.178009,343.392700 397.947968,375.340851 444.842621,389.323364 
	C454.008270,392.056213 463.500671,393.693085 472.771729,395.819275 
	C473.326965,394.231598 473.626526,393.773865 473.627350,393.315613 
	C473.672699,368.318115 473.735931,343.320343 473.579620,318.323944 
	C473.572388,317.164307 471.788055,315.491760 470.468811,314.963348 
	C466.619415,313.421570 462.524139,312.504456 458.634918,311.049347 
	C436.030975,302.592285 418.806213,288.379242 410.431854,265.059998 
	C402.908020,244.109161 402.342010,222.352234 403.519745,200.441559 
	C403.542267,200.022354 403.972839,199.625092 404.471344,198.779343 
	C422.233490,198.779343 440.174622,198.779343 458.378662,198.779343 
	C458.502930,196.863663 458.677948,195.401825 458.680115,193.939728 
	C458.700806,180.107193 458.534241,166.271744 458.786133,152.443771 
	C458.863434,148.201508 457.304993,146.982880 453.355133,146.942612 
	C440.363159,146.810181 427.373505,146.443466 414.383240,146.153549 
	C412.650696,146.114868 410.919861,146.000198 408.846832,145.905045 
	C414.577942,113.763275 423.414093,83.247017 437.038879,54.077209 
	C435.952637,53.797344 435.475342,53.568726 434.997131,53.566742 
	C425.164978,53.526020 415.332703,53.511124 404.500427,53.491173 
M139.709930,211.056107 
	C122.869408,211.805145 113.069374,219.024017 107.853714,234.457916 
	C105.247070,242.171371 104.208168,249.931564 106.161865,258.012390 
	C109.529556,271.941589 112.697998,285.918976 116.230293,301.078827 
	C117.730865,299.033112 118.475235,298.342590 118.827438,297.490082 
	C125.237709,281.973694 132.374710,266.697174 137.696808,250.813278 
	C141.136017,240.548920 142.166748,229.425476 143.656815,218.601669 
	C143.975525,216.286514 141.616821,213.602783 139.709930,211.056107 
z"/>
<path fill="#F5F3EF" opacity="1.000000" stroke="none" 
	d="
M405.000427,53.491135 
	C415.332703,53.511124 425.164978,53.526020 434.997131,53.566742 
	C435.475342,53.568726 435.952637,53.797344 437.038879,54.077209 
	C423.414093,83.247017 414.577942,113.763275 408.846832,145.905045 
	C410.919861,146.000198 412.650696,146.114868 414.383240,146.153549 
	C427.373505,146.443466 440.363159,146.810181 453.355133,146.942612 
	C457.304993,146.982880 458.863434,148.201508 458.786133,152.443771 
	C458.534241,166.271744 458.700806,180.107193 458.680115,193.939728 
	C458.677948,195.401825 458.502930,196.863663 458.378662,198.779343 
	C440.174622,198.779343 422.233490,198.779343 404.471344,198.779343 
	C403.972839,199.625092 403.542267,200.022354 403.519745,200.441559 
	C402.342010,222.352234 402.908020,244.109161 410.431854,265.059998 
	C418.806213,288.379242 436.030975,302.592285 458.634918,311.049347 
	C462.524139,312.504456 466.619415,313.421570 470.468811,314.963348 
	C471.788055,315.491760 473.572388,317.164307 473.579620,318.323944 
	C473.735931,343.320343 473.672699,368.318115 473.627350,393.315613 
	C473.626526,393.773865 473.326965,394.231598 472.771729,395.819275 
	C463.500671,393.693085 454.008270,392.056213 444.842621,389.323364 
	C397.947968,375.340851 369.178009,343.392700 355.250427,297.337402 
	C352.035339,286.705902 350.273041,275.634888 347.848175,264.764832 
	C347.498108,263.195648 347.181702,261.618988 346.900970,260.288605 
	C341.888397,273.953156 336.997833,287.711456 331.770233,301.340485 
	C329.450562,307.388245 326.603851,313.253632 323.648132,319.023438 
	C322.926636,320.431793 320.841309,322.021729 319.370544,322.033966 
	C297.206818,322.218842 275.040985,322.156891 252.875671,322.131348 
	C252.273407,322.130646 251.671402,321.890137 250.507675,321.641479 
	C251.874756,318.834747 253.032242,316.315887 254.309052,313.859070 
	C266.382935,290.627045 277.339966,266.917603 283.330627,241.293564 
	C285.021973,234.059036 286.054138,226.491745 286.059570,219.076096 
	C286.074402,198.890686 274.514130,194.453217 258.651215,197.644806 
	C239.056656,201.587189 225.945068,215.848099 222.720978,235.699051 
	C217.900742,265.377655 207.789551,293.279449 194.603439,320.148865 
	C193.888367,321.605957 191.817383,323.340210 190.364899,323.351776 
	C168.035599,323.529785 145.704178,323.445404 123.373291,323.400879 
	C122.899071,323.399933 122.425362,323.148071 121.287117,322.824280 
	C122.672356,319.908966 123.908623,317.086426 125.326355,314.358154 
	C137.322845,291.272491 148.362503,267.739868 154.225998,242.276520 
	C156.326263,233.155731 157.071899,223.492020 156.819733,214.119583 
	C156.511185,202.651306 149.295334,196.870819 137.786392,196.875931 
	C119.440804,196.884079 103.957420,207.770813 96.241638,226.025513 
	C90.869209,238.736099 89.918816,251.683228 93.424820,265.086731 
	C96.070206,275.200043 98.210007,285.445648 100.659531,295.997192 
	C83.096848,295.997192 65.619148,296.048004 48.143570,295.879150 
	C47.016777,295.868256 45.250694,294.370392 44.884266,293.214722 
	C35.801971,264.570190 29.278959,235.396957 26.959433,205.358688 
	C24.968126,179.570953 27.002132,154.124481 32.907753,128.956772 
	C33.459217,126.606621 34.041584,125.095200 36.974651,125.108002 
	C59.796467,125.207672 82.618912,125.163063 105.661682,125.163063 
	C101.094437,140.251877 96.616028,155.047211 91.981239,170.359192 
	C100.398941,163.465988 107.399040,156.434616 115.582642,151.283524 
	C137.350739,137.581787 161.395081,134.961349 186.264954,139.680237 
	C198.308670,141.965439 207.309601,149.392395 213.820755,159.645172 
	C216.395050,163.698776 218.343964,168.149551 220.744446,172.738358 
	C222.843018,170.284897 224.888443,167.730347 227.102402,165.331345 
	C242.943848,148.165817 262.935272,139.525055 285.900238,138.224930 
	C295.920807,137.657639 306.228455,138.314423 316.108124,140.080292 
	C328.359955,142.270172 337.160431,150.272400 343.527161,160.879379 
	C344.290070,162.150391 345.130432,163.375351 345.957581,164.606384 
	C346.012268,164.687759 346.261108,164.638702 345.844208,164.608154 
	C349.904968,143.698761 353.320679,122.709618 358.210297,102.069633 
	C361.763733,87.070023 367.326538,72.550652 371.855133,57.774776 
	C372.934845,54.251842 375.030273,53.337444 378.504883,53.422394 
	C387.165436,53.634132 395.834686,53.491531 405.000427,53.491135 
z"/>
<path fill="#040404" opacity="1.000000" stroke="none" 
	d="
M140.100739,211.072479 
	C141.616821,213.602783 143.975525,216.286514 143.656815,218.601669 
	C142.166748,229.425476 141.136017,240.548920 137.696808,250.813278 
	C132.374710,266.697174 125.237709,281.973694 118.827438,297.490082 
	C118.475235,298.342590 117.730865,299.033112 116.230293,301.078827 
	C112.697998,285.918976 109.529556,271.941589 106.161865,258.012390 
	C104.208168,249.931564 105.247070,242.171371 107.853714,234.457916 
	C113.069374,219.024017 122.869408,211.805145 140.100739,211.072479 
z"/>
</svg>